<svg width="32" height="32" viewBox="0 0 32 32" fill="none" xmlns="http://www.w3.org/2000/svg">
  <!-- 背景円 -->
  <circle cx="16" cy="16" r="15" fill="#3b82f6" stroke="#1e40af" stroke-width="1"/>
  
  <!-- しろくまの顔 -->
  <!-- 頭部 -->
  <ellipse cx="16" cy="18" rx="9" ry="8" fill="white"/>
  
  <!-- 耳 -->
  <circle cx="10.5" cy="12" r="2.5" fill="white"/>
  <circle cx="21.5" cy="12" r="2.5" fill="white"/>
  <circle cx="10.5" cy="12" r="1.2" fill="#f3f4f6"/>
  <circle cx="21.5" cy="12" r="1.2" fill="#f3f4f6"/>
  
  <!-- 鼻 -->
  <ellipse cx="16" cy="19" rx="1" ry="0.7" fill="#374151"/>
  
  <!-- 目 -->
  <circle cx="13" cy="16.5" r="1" fill="#374151"/>
  <circle cx="19" cy="16.5" r="1" fill="#374151"/>
  
  <!-- 口 -->
  <path d="M14 21.5 Q16 23 18 21.5" stroke="#374151" stroke-width="1" fill="none" stroke-linecap="round"/>
  
  <!-- チャットバブル（小さく右上に） -->
  <path d="M22 6h5c0.8 0 1.5 0.7 1.5 1.5v3c0 0.8-0.7 1.5-1.5 1.5h-0.5l-1 1-1-1h-0.5c-0.8 0-1.5-0.7-1.5-1.5v-3c0-0.8 0.7-1.5 1.5-1.5z" fill="white"/>
  
  <!-- チャット内容（？マーク） -->
  <text x="24.5" y="10" font-family="serif" font-size="4" fill="#3b82f6" text-anchor="middle">?</text>
</svg>